<svg xmlns="http://www.w3.org/2000/svg" viewBox="0 0 209.94 58.97"><defs><style>.cls-1{fill:#fff;}.cls-2{fill:none;stroke:#dad3c8;stroke-width:2px;}.cls-3{isolation:isolate;}.cls-4{fill:#544f4f;}</style></defs><title>appleStore</title><g id="Layer_1" data-name="Layer 1"><g id="Rectangle_709" data-name="Rectangle 709"><rect class="cls-1" x="0.02" y="0.02" width="209.9" height="58.93" rx="9.82" ry="9.82"/><rect class="cls-2" x="1" y="1" width="207.94" height="56.97" rx="8.84" ry="8.84"/></g></g><g id="Layer_2" data-name="Layer 2"><g id="Group_663" data-name="Group 663"><g id="Download_on_the" data-name="Download on the" class="cls-3"><g class="cls-3"><path class="cls-4" d="M92,19.52a4.7,4.7,0,0,1-.32,1.75,3.94,3.94,0,0,1-2.28,2.27,4.93,4.93,0,0,1-1.8.32H84.29V15.18H87.6a4.93,4.93,0,0,1,1.8.32,4.13,4.13,0,0,1,1.38.9,3.89,3.89,0,0,1,.9,1.37A4.74,4.74,0,0,1,92,19.52Zm-1.65,0a4,4,0,0,0-.2-1.28,2.64,2.64,0,0,0-.54-1,2.38,2.38,0,0,0-.86-.6,3,3,0,0,0-1.15-.21H85.92v6.11H87.6a3,3,0,0,0,1.15-.21,2.29,2.29,0,0,0,.86-.61,2.64,2.64,0,0,0,.54-1A3.86,3.86,0,0,0,90.35,19.52Z" transform="translate(-0.76 -0.62)"/><path class="cls-4" d="M95.81,17.61a3.35,3.35,0,0,1,1.25.22,2.71,2.71,0,0,1,1.57,1.63,4.22,4.22,0,0,1,0,2.63,2.82,2.82,0,0,1-.62,1,2.62,2.62,0,0,1-1,.64,3.35,3.35,0,0,1-1.25.22,3.4,3.4,0,0,1-1.26-.22,2.65,2.65,0,0,1-1-.64,2.82,2.82,0,0,1-.62-1,4,4,0,0,1,0-2.63,2.74,2.74,0,0,1,.62-1,2.76,2.76,0,0,1,1-.63A3.4,3.4,0,0,1,95.81,17.61Zm0,5.2a1.27,1.27,0,0,0,1.13-.52,2.53,2.53,0,0,0,.37-1.51,2.61,2.61,0,0,0-.37-1.52,1.3,1.3,0,0,0-1.13-.52,1.34,1.34,0,0,0-1.16.53,2.65,2.65,0,0,0-.37,1.51,2.63,2.63,0,0,0,.37,1.51A1.33,1.33,0,0,0,95.81,22.81Z" transform="translate(-0.76 -0.62)"/><path class="cls-4" d="M99.25,17.7h1.18a.51.51,0,0,1,.28.08.35.35,0,0,1,.14.2l.88,3.29a5,5,0,0,1,.12.53l.09.51c0-.17.09-.34.14-.51s.1-.35.16-.53l1-3.3a.35.35,0,0,1,.14-.2.44.44,0,0,1,.25-.08h.66a.46.46,0,0,1,.27.08.35.35,0,0,1,.14.2l1,3.36c0,.17.1.34.14.5l.12.49c0-.17.06-.35.1-.52a3.71,3.71,0,0,1,.13-.53l.91-3.29a.35.35,0,0,1,.14-.2.5.5,0,0,1,.27-.08h1.12l-2,6.16h-1.2c-.12,0-.22-.09-.27-.26L104.13,20c0-.12-.07-.23-.1-.35s-.06-.24-.08-.35c0,.12,0,.24-.07.35s-.06.24-.1.36l-1.12,3.55a.34.34,0,0,1-.33.26H101.2Z" transform="translate(-0.76 -0.62)"/><path class="cls-4" d="M109.49,23.86V17.7h.91a.37.37,0,0,1,.38.27l.1.49a3.25,3.25,0,0,1,.39-.35,4,4,0,0,1,.44-.27,2.58,2.58,0,0,1,.49-.17,2.65,2.65,0,0,1,.58-.06,2.24,2.24,0,0,1,.89.17,1.76,1.76,0,0,1,.66.48,2.18,2.18,0,0,1,.39.74,3.09,3.09,0,0,1,.14.94v3.92h-1.49V19.94a1.29,1.29,0,0,0-.26-.87.94.94,0,0,0-.78-.31,1.59,1.59,0,0,0-.72.17,2.82,2.82,0,0,0-.64.48v4.45Z" transform="translate(-0.76 -0.62)"/><path class="cls-4" d="M117.89,14.94v8.92h-1.48V14.94Z" transform="translate(-0.76 -0.62)"/><path class="cls-4" d="M122.19,17.61a3.4,3.4,0,0,1,1.26.22,2.72,2.72,0,0,1,1,.63,2.59,2.59,0,0,1,.61,1,4,4,0,0,1,0,2.63,2.67,2.67,0,0,1-.61,1,2.62,2.62,0,0,1-1,.64,3.4,3.4,0,0,1-1.26.22,3.35,3.35,0,0,1-1.25-.22,2.57,2.57,0,0,1-1-.64,2.69,2.69,0,0,1-.62-1,4,4,0,0,1,0-2.63,2.61,2.61,0,0,1,.62-1,2.67,2.67,0,0,1,1-.63A3.35,3.35,0,0,1,122.19,17.61Zm0,5.2a1.29,1.29,0,0,0,1.14-.52,2.53,2.53,0,0,0,.37-1.51,2.61,2.61,0,0,0-.37-1.52,1.51,1.51,0,0,0-2.29,0,2.57,2.57,0,0,0-.37,1.51,2.55,2.55,0,0,0,.37,1.51A1.31,1.31,0,0,0,122.19,22.81Z" transform="translate(-0.76 -0.62)"/><path class="cls-4" d="M131.21,23.86h-.66a.75.75,0,0,1-.33-.06.44.44,0,0,1-.18-.26l-.14-.44a3.66,3.66,0,0,1-.45.37,2.48,2.48,0,0,1-.47.27,2.16,2.16,0,0,1-.51.16,2.77,2.77,0,0,1-.6.06,2.36,2.36,0,0,1-.72-.11,1.57,1.57,0,0,1-.57-.31,1.68,1.68,0,0,1-.37-.53,2,2,0,0,1-.13-.73,1.38,1.38,0,0,1,.19-.69,1.73,1.73,0,0,1,.6-.61,4.1,4.1,0,0,1,1.14-.45,6.76,6.76,0,0,1,1.76-.19V20a1.4,1.4,0,0,0-.26-.92,1,1,0,0,0-.76-.3,2,2,0,0,0-.6.08,2.76,2.76,0,0,0-.42.19l-.33.19a.63.63,0,0,1-.33.09.47.47,0,0,1-.26-.08.61.61,0,0,1-.17-.19l-.27-.48a3.65,3.65,0,0,1,2.56-1,2.5,2.5,0,0,1,1,.18,2,2,0,0,1,.71.49,2,2,0,0,1,.45.75,2.93,2.93,0,0,1,.15,1Zm-2.88-.92a1.86,1.86,0,0,0,.42-.05,1.23,1.23,0,0,0,.37-.12,1.94,1.94,0,0,0,.33-.2,4,4,0,0,0,.32-.29v-1a6.49,6.49,0,0,0-1.09.08,3.48,3.48,0,0,0-.7.21.89.89,0,0,0-.37.3.75.75,0,0,0,.12.93A1,1,0,0,0,128.33,22.94Z" transform="translate(-0.76 -0.62)"/><path class="cls-4" d="M137,23.86a.37.37,0,0,1-.38-.27L136.5,23a3.68,3.68,0,0,1-.4.39,3.52,3.52,0,0,1-.45.3,2.31,2.31,0,0,1-.52.19,2.37,2.37,0,0,1-.61.07,2,2,0,0,1-.92-.21,2,2,0,0,1-.72-.61,2.68,2.68,0,0,1-.47-1,5,5,0,0,1-.17-1.34,4.28,4.28,0,0,1,.19-1.27,3.09,3.09,0,0,1,.53-1,2.63,2.63,0,0,1,.84-.68,2.42,2.42,0,0,1,1.09-.24,2.3,2.3,0,0,1,.88.16,2.49,2.49,0,0,1,.66.45V14.94h1.48v8.92Zm-2-1.09a1.46,1.46,0,0,0,.78-.19,2.56,2.56,0,0,0,.62-.54V19.28a1.49,1.49,0,0,0-.55-.44,1.69,1.69,0,0,0-.64-.12,1.48,1.48,0,0,0-.61.12,1.23,1.23,0,0,0-.46.39,1.64,1.64,0,0,0-.29.64,3.65,3.65,0,0,0-.11.93,4,4,0,0,0,.09.92,1.81,1.81,0,0,0,.25.61.93.93,0,0,0,.4.34A1.24,1.24,0,0,0,135,22.77Z" transform="translate(-0.76 -0.62)"/><path class="cls-4" d="M144.45,17.61a3.31,3.31,0,0,1,1.25.22,2.67,2.67,0,0,1,1,.63,2.59,2.59,0,0,1,.61,1,4,4,0,0,1,0,2.63,2.67,2.67,0,0,1-.61,1,2.57,2.57,0,0,1-1,.64,3.31,3.31,0,0,1-1.25.22,3.35,3.35,0,0,1-1.25-.22,2.57,2.57,0,0,1-1-.64,2.69,2.69,0,0,1-.62-1,4,4,0,0,1,0-2.63,2.61,2.61,0,0,1,.62-1,2.67,2.67,0,0,1,1-.63A3.35,3.35,0,0,1,144.45,17.61Zm0,5.2a1.29,1.29,0,0,0,1.14-.52,2.53,2.53,0,0,0,.37-1.51,2.61,2.61,0,0,0-.37-1.52,1.51,1.51,0,0,0-2.29,0,2.57,2.57,0,0,0-.37,1.51,2.55,2.55,0,0,0,.37,1.51A1.31,1.31,0,0,0,144.45,22.81Z" transform="translate(-0.76 -0.62)"/><path class="cls-4" d="M148.65,23.86V17.7h.9a.36.36,0,0,1,.38.27l.1.49a4.36,4.36,0,0,1,.4-.35,3.23,3.23,0,0,1,.44-.27,2.35,2.35,0,0,1,.49-.17,2.65,2.65,0,0,1,.58-.06,2.28,2.28,0,0,1,.89.17,1.65,1.65,0,0,1,.65.48,2,2,0,0,1,.4.74,3.1,3.1,0,0,1,.13.94v3.92h-1.48V19.94a1.35,1.35,0,0,0-.26-.87,1,1,0,0,0-.78-.31,1.59,1.59,0,0,0-.72.17,2.62,2.62,0,0,0-.64.48v4.45Z" transform="translate(-0.76 -0.62)"/><path class="cls-4" d="M159.81,24a1.6,1.6,0,0,1-1.23-.46,1.73,1.73,0,0,1-.43-1.25V18.81h-.63a.31.31,0,0,1-.21-.07.35.35,0,0,1-.08-.24v-.59l1-.16.31-1.68a.28.28,0,0,1,.11-.18.32.32,0,0,1,.22-.07h.77v1.94h1.62v1h-1.62v3.34a.69.69,0,0,0,.14.45.5.5,0,0,0,.39.16.75.75,0,0,0,.23,0l.16-.07.12-.07a.23.23,0,0,1,.11,0,.2.2,0,0,1,.11,0,.45.45,0,0,1,.09.1l.44.72a2.14,2.14,0,0,1-.74.41A2.83,2.83,0,0,1,159.81,24Z" transform="translate(-0.76 -0.62)"/><path class="cls-4" d="M162.43,23.86V14.94h1.48v3.43a3.21,3.21,0,0,1,.79-.55,2.32,2.32,0,0,1,1-.21,2.28,2.28,0,0,1,.89.17,1.65,1.65,0,0,1,.65.48,2,2,0,0,1,.4.74,3.1,3.1,0,0,1,.13.94v3.92h-1.48V19.94a1.35,1.35,0,0,0-.26-.87.94.94,0,0,0-.78-.31,1.59,1.59,0,0,0-.72.17,2.62,2.62,0,0,0-.64.48v4.45Z" transform="translate(-0.76 -0.62)"/><path class="cls-4" d="M171.8,17.61a3.12,3.12,0,0,1,1.07.18,2.5,2.5,0,0,1,.84.55,2.44,2.44,0,0,1,.55.87,3.37,3.37,0,0,1,.2,1.19,2.16,2.16,0,0,1,0,.28.38.38,0,0,1-.05.17.28.28,0,0,1-.1.09.43.43,0,0,1-.17,0h-3.81a2.19,2.19,0,0,0,.51,1.39,1.58,1.58,0,0,0,1.18.44,1.91,1.91,0,0,0,.62-.08,3.36,3.36,0,0,0,.46-.19l.34-.18a.54.54,0,0,1,.28-.09.38.38,0,0,1,.16,0,.35.35,0,0,1,.11.1l.44.54a2.59,2.59,0,0,1-.56.49,2.91,2.91,0,0,1-.64.31,3.11,3.11,0,0,1-.67.16,5.29,5.29,0,0,1-.67.05,3.36,3.36,0,0,1-1.2-.21,2.76,2.76,0,0,1-1-.63,3.05,3.05,0,0,1-.64-1,4.16,4.16,0,0,1-.23-1.43,3.52,3.52,0,0,1,.2-1.18,2.81,2.81,0,0,1,.59-1,2.73,2.73,0,0,1,.93-.65A3,3,0,0,1,171.8,17.61Zm0,1.06a1.36,1.36,0,0,0-1,.37,1.83,1.83,0,0,0-.47,1h2.79a1.91,1.91,0,0,0-.08-.54,1.22,1.22,0,0,0-.24-.45,1.28,1.28,0,0,0-.41-.3A1.41,1.41,0,0,0,171.83,18.67Z" transform="translate(-0.76 -0.62)"/></g></g></g><g id="Group_662" data-name="Group 662"><g id="App_Store" data-name="App Store" class="cls-3"><g class="cls-3"><path class="cls-4" d="M97.59,46.86H95.51a1,1,0,0,1-.58-.17,1,1,0,0,1-.32-.44l-1.08-3h-6l-1.08,3a1,1,0,0,1-.32.42.87.87,0,0,1-.57.19H83.48L89.16,32.4h2.75ZM88.23,41.4h4.61l-1.76-4.81q-.12-.31-.27-.75c-.1-.3-.19-.61-.28-1-.1.34-.19.66-.28,1s-.18.55-.26.77Z" transform="translate(-0.76 -0.62)"/><path class="cls-4" d="M98.94,50.21V36.6h1.51a.78.78,0,0,1,.41.11.55.55,0,0,1,.22.34l.2,1a5.06,5.06,0,0,1,1.42-1.15,3.94,3.94,0,0,1,1.89-.44,3.38,3.38,0,0,1,1.53.35,3.41,3.41,0,0,1,1.2,1,4.72,4.72,0,0,1,.78,1.64,8.34,8.34,0,0,1,.28,2.23,7.21,7.21,0,0,1-.31,2.13,5.39,5.39,0,0,1-.89,1.7,4.1,4.1,0,0,1-1.39,1.13A4,4,0,0,1,104,47a3.32,3.32,0,0,1-2.56-1v4.2Zm4.8-11.85a2.49,2.49,0,0,0-1.32.33,3.71,3.71,0,0,0-1,.91v4.6a2.35,2.35,0,0,0,.91.73,2.91,2.91,0,0,0,1.07.2,2.37,2.37,0,0,0,1-.21,2,2,0,0,0,.77-.64,3.37,3.37,0,0,0,.49-1.08,6.44,6.44,0,0,0,.17-1.55,6.55,6.55,0,0,0-.15-1.52,3,3,0,0,0-.41-1,1.63,1.63,0,0,0-.66-.57A2.05,2.05,0,0,0,103.74,38.36Z" transform="translate(-0.76 -0.62)"/><path class="cls-4" d="M110.25,50.21V36.6h1.51a.78.78,0,0,1,.41.11.55.55,0,0,1,.22.34l.2,1A5.06,5.06,0,0,1,114,36.85a3.94,3.94,0,0,1,1.89-.44,3.38,3.38,0,0,1,1.53.35,3.41,3.41,0,0,1,1.2,1,4.72,4.72,0,0,1,.78,1.64,8.34,8.34,0,0,1,.28,2.23,7.21,7.21,0,0,1-.31,2.13,5.39,5.39,0,0,1-.89,1.7,4.1,4.1,0,0,1-1.39,1.13,4,4,0,0,1-1.82.4,3.32,3.32,0,0,1-2.56-1v4.2Zm4.8-11.85a2.49,2.49,0,0,0-1.32.33,3.71,3.71,0,0,0-1,.91v4.6a2.35,2.35,0,0,0,.91.73,2.91,2.91,0,0,0,1.07.2,2.37,2.37,0,0,0,1-.21,2,2,0,0,0,.77-.64A3.37,3.37,0,0,0,117,43.2a6.44,6.44,0,0,0,.17-1.55,6.55,6.55,0,0,0-.15-1.52,3,3,0,0,0-.41-1,1.63,1.63,0,0,0-.66-.57A2.05,2.05,0,0,0,115.05,38.36Z" transform="translate(-0.76 -0.62)"/><path class="cls-4" d="M133.31,35a.75.75,0,0,1-.26.31.64.64,0,0,1-.34.09.86.86,0,0,1-.45-.15l-.59-.35a4.58,4.58,0,0,0-.8-.34,3.13,3.13,0,0,0-1.07-.16,3.17,3.17,0,0,0-1,.14,2,2,0,0,0-.7.37,1.42,1.42,0,0,0-.42.58,1.73,1.73,0,0,0-.14.73,1.28,1.28,0,0,0,.28.85,2.29,2.29,0,0,0,.76.58,7.22,7.22,0,0,0,1.07.43l1.22.41a10.92,10.92,0,0,1,1.23.5,4.37,4.37,0,0,1,1.07.72,3.28,3.28,0,0,1,.75,1.06,3.7,3.7,0,0,1,.29,1.53,5.1,5.1,0,0,1-.34,1.84,4.25,4.25,0,0,1-1,1.49,4.75,4.75,0,0,1-1.57,1,5.87,5.87,0,0,1-2.13.36,6.82,6.82,0,0,1-1.36-.13,7.72,7.72,0,0,1-1.29-.39,7.36,7.36,0,0,1-1.15-.6,5.2,5.2,0,0,1-1-.78l.78-1.29a1,1,0,0,1,.26-.23.6.6,0,0,1,.35-.1,1,1,0,0,1,.54.21l.68.45a5,5,0,0,0,.93.46,3.8,3.8,0,0,0,1.29.2,2.67,2.67,0,0,0,1.78-.54,2,2,0,0,0,.63-1.57,1.46,1.46,0,0,0-.29-.93,2.26,2.26,0,0,0-.75-.6,5.19,5.19,0,0,0-1.07-.42c-.4-.11-.81-.24-1.22-.37a9.08,9.08,0,0,1-1.22-.48,4,4,0,0,1-1.07-.73,3.31,3.31,0,0,1-.76-1.12,4.32,4.32,0,0,1-.28-1.67,3.92,3.92,0,0,1,.31-1.54,4,4,0,0,1,.92-1.33,4.39,4.39,0,0,1,1.49-.93,5.42,5.42,0,0,1,2-.35,6.68,6.68,0,0,1,2.36.4A5.41,5.41,0,0,1,134,33.76Z" transform="translate(-0.76 -0.62)"/><path class="cls-4" d="M139.52,47a2.7,2.7,0,0,1-2.05-.75,2.92,2.92,0,0,1-.72-2.09V38.45h-1a.47.47,0,0,1-.49-.52V37l1.65-.27.52-2.8a.45.45,0,0,1,.18-.31.62.62,0,0,1,.37-.11h1.28v3.23h2.7v1.76h-2.7V44a1.09,1.09,0,0,0,.24.75.81.81,0,0,0,.64.27,1.35,1.35,0,0,0,.38-.05l.27-.12.21-.11a.32.32,0,0,1,.18-.06.28.28,0,0,1,.18.06,1.23,1.23,0,0,1,.15.16l.74,1.2a3.75,3.75,0,0,1-1.24.68A4.73,4.73,0,0,1,139.52,47Z" transform="translate(-0.76 -0.62)"/><path class="cls-4" d="M148.27,36.44a5.54,5.54,0,0,1,2.08.37A4.43,4.43,0,0,1,153,39.52a6.87,6.87,0,0,1,0,4.39,4.78,4.78,0,0,1-1,1.67,4.52,4.52,0,0,1-1.6,1.06,6.06,6.06,0,0,1-4.17,0,4.48,4.48,0,0,1-1.61-1.06,4.8,4.8,0,0,1-1-1.67,6.87,6.87,0,0,1,0-4.39,4.67,4.67,0,0,1,1-1.66,4.59,4.59,0,0,1,1.61-1A5.56,5.56,0,0,1,148.27,36.44Zm0,8.67a2.18,2.18,0,0,0,1.89-.86,4.3,4.3,0,0,0,.62-2.52,4.35,4.35,0,0,0-.62-2.53,2.51,2.51,0,0,0-3.81,0,4.26,4.26,0,0,0-.62,2.52,4.26,4.26,0,0,0,.62,2.52A2.21,2.21,0,0,0,148.27,45.11Z" transform="translate(-0.76 -0.62)"/><path class="cls-4" d="M155.26,46.86V36.6h1.45a.8.8,0,0,1,.53.14.83.83,0,0,1,.2.48l.15,1.24a4.78,4.78,0,0,1,1.29-1.5,2.67,2.67,0,0,1,1.66-.55,2.2,2.2,0,0,1,1.26.35l-.32,1.85a.43.43,0,0,1-.13.26.45.45,0,0,1-.27.07,1.51,1.51,0,0,1-.41-.07,2.66,2.66,0,0,0-.69-.07,2,2,0,0,0-1.32.43,3.14,3.14,0,0,0-.93,1.24v6.39Z" transform="translate(-0.76 -0.62)"/><path class="cls-4" d="M167.67,36.44a4.9,4.9,0,0,1,1.78.31,4,4,0,0,1,1.41.91,4.09,4.09,0,0,1,.92,1.46,5.46,5.46,0,0,1,.33,2,3.09,3.09,0,0,1,0,.47.9.9,0,0,1-.09.29.35.35,0,0,1-.17.15.79.79,0,0,1-.28,0H165.2a3.48,3.48,0,0,0,.85,2.32,2.65,2.65,0,0,0,2,.74,3.47,3.47,0,0,0,1-.14,5,5,0,0,0,.76-.31l.57-.31a1,1,0,0,1,.48-.14.55.55,0,0,1,.26.06.75.75,0,0,1,.19.17l.72.9a4.39,4.39,0,0,1-.92.81,5.56,5.56,0,0,1-1.07.52,5.63,5.63,0,0,1-1.13.27,8.53,8.53,0,0,1-1.11.08,5.58,5.58,0,0,1-2-.35,4.46,4.46,0,0,1-1.6-1,4.92,4.92,0,0,1-1.07-1.72,6.71,6.71,0,0,1-.39-2.38,5.55,5.55,0,0,1,.34-2,4.57,4.57,0,0,1,2.52-2.7A5.06,5.06,0,0,1,167.67,36.44Zm.05,1.77a2.26,2.26,0,0,0-1.69.61,3,3,0,0,0-.78,1.73h4.64a3.26,3.26,0,0,0-.13-.9,2.08,2.08,0,0,0-.4-.75,1.91,1.91,0,0,0-.68-.5A2.25,2.25,0,0,0,167.72,38.21Z" transform="translate(-0.76 -0.62)"/></g></g></g><path d="M63,40.12A21.54,21.54,0,0,1,60.9,44a20.12,20.12,0,0,1-2.75,3.33,5.34,5.34,0,0,1-3.54,1.55,8.7,8.7,0,0,1-3.26-.78,9.39,9.39,0,0,0-3.52-.77,9.62,9.62,0,0,0-3.61.77,9.71,9.71,0,0,1-3.13.83,5,5,0,0,1-3.61-1.6,20.32,20.32,0,0,1-2.88-3.45,23.57,23.57,0,0,1-3-6,22.17,22.17,0,0,1-1.28-7.2A13.07,13.07,0,0,1,32,23.72a10.06,10.06,0,0,1,3.61-3.66,9.7,9.7,0,0,1,4.89-1.38,11.41,11.41,0,0,1,3.79.88,12.37,12.37,0,0,0,3,.88,18,18,0,0,0,3.32-1,11,11,0,0,1,4.53-.8,9.61,9.61,0,0,1,7.52,4A8.69,8.69,0,0,0,61,36.48a9.34,9.34,0,0,0,2.75,1.8c-.22.64-.45,1.25-.7,1.84ZM55.37,10a8.49,8.49,0,0,1-2.17,5.56c-1.75,2-3.86,3.22-6.15,3a6.06,6.06,0,0,1,0-.76,9.07,9.07,0,0,1,5.12-7.72,8.34,8.34,0,0,1,3.21-.91,7.09,7.09,0,0,1,0,.79Z" transform="translate(-0.76 -0.62)"/></g></svg>