<svg xmlns="http://www.w3.org/2000/svg" xmlns:xlink="http://www.w3.org/1999/xlink" viewBox="0 0 48.389 112.5">
  <defs>
    <style>
      .cls-1 {
        fill: none;
      }

      .cls-2 {
        fill: #2e92dd;
      }

      .cls-3, .cls-6 {
        fill: #2f92dd;
      }

      .cls-4 {
        fill: #fff;
      }

      .cls-5, .cls-6 {
        stroke: none;
      }

      .cls-7 {
        filter: url(#Union_106);
      }
    </style>
    <filter id="Union_106" x="0" y="0" width="48.389" height="64.452" filterUnits="userSpaceOnUse">
      <feOffset dx="2" dy="2" input="SourceAlpha"/>
      <feGaussianBlur stdDeviation="1.5" result="blur"/>
      <feFlood flood-opacity="0.114"/>
      <feComposite operator="in" in2="blur"/>
      <feComposite in="SourceGraphic"/>
    </filter>
  </defs>
  <g id="DroppedPin" transform="translate(-633.498 -171.5)">
    <rect id="Rectangle_1560" data-name="Rectangle 1560" class="cls-1" width="39" height="110" transform="translate(636 174)"/>
    <g id="Group_2766" data-name="Group 2766" transform="translate(0 -1)">
      <g class="cls-7" transform="matrix(1, 0, 0, 1, 633.5, 172.5)">
        <path id="Union_106-2" data-name="Union 106" class="cls-2" d="M17768.338-5731.988a59.638,59.638,0,0,1-6.4-10.2,99.176,99.176,0,0,1-4.947-11.271,28.613,28.613,0,0,1-1.988-7.686,1.309,1.309,0,0,1,.176-.648q-.085-.9-.086-1.817a19.525,19.525,0,0,1,19.648-19.4,19.525,19.525,0,0,1,19.65,19.4,19.357,19.357,0,0,1-.1,2,1.148,1.148,0,0,1,.1.464c0,2.872-3.176,11.5-6.932,18.833a61.171,61.171,0,0,1-6.408,10.276c-2.416,2.974-4.551,4.483-6.355,4.483S17770.75-5729.045,17768.338-5731.988Z" transform="translate(-17752.5 5785.5)"/>
      </g>
      <g id="Group_2732" data-name="Group 2732" transform="translate(175.089 -896.448)">
        <path id="Path_919" data-name="Path 919" class="cls-3" d="M0-1.028C0,4.743,11.925,32.563,19.69,32.563S39.38,4.411,39.38-1.028,0-6.8,0-1.028Z" transform="translate(460.911 1093.885)"/>
        <g id="Group_2176" data-name="Group 2176" transform="translate(460.994 1071.448)">
          <g id="Group_522" data-name="Group 522" transform="translate(0 0)">
            <g id="Path_136" data-name="Path 136" class="cls-4">
              <path class="cls-5" d="M 19.64889335632324 36.29205703735352 C 15.06215381622314 36.29205703735352 10.75161361694336 34.5305061340332 7.511313438415527 31.33191680908203 C 4.279723167419434 28.14190673828125 2.500003337860107 23.90299606323242 2.500003337860107 19.39602661132812 C 2.500003337860107 14.88905620574951 4.279723167419434 10.650146484375 7.511313438415527 7.460136413574219 C 10.75161361694336 4.261546611785889 15.06215381622314 2.499996662139893 19.64889335632324 2.499996662139893 C 24.23563385009766 2.499996662139893 28.54617309570312 4.261546611785889 31.78647422790527 7.460136413574219 C 35.01806259155273 10.650146484375 36.79778289794922 14.88905620574951 36.79778289794922 19.39602661132812 C 36.79778289794922 23.90299606323242 35.01806259155273 28.14190673828125 31.78647422790527 31.33191680908203 C 28.54617309570312 34.5305061340332 24.23563385009766 36.29205703735352 19.64889335632324 36.29205703735352 Z"/>
              <path class="cls-6" d="M 19.64889335632324 4.999996185302734 C 15.72382354736328 4.999996185302734 12.03700256347656 6.505546569824219 9.267593383789062 9.239316940307617 C 6.515594482421875 11.95589637756348 5.000003814697266 15.56295585632324 5.000003814697266 19.39602661132812 C 5.000003814697266 23.22909545898438 6.515594482421875 26.83615684509277 9.267593383789062 29.55273628234863 C 12.03700256347656 32.28650665283203 15.72382354736328 33.79205703735352 19.64889335632324 33.79205703735352 C 23.5739631652832 33.79205703735352 27.26078414916992 32.28650665283203 30.03019332885742 29.55273628234863 C 32.78219223022461 26.83615684509277 34.29778289794922 23.22909545898438 34.29778289794922 19.39602661132812 C 34.29778289794922 15.56295585632324 32.78219223022461 11.95589637756348 30.03019332885742 9.239316940307617 C 27.26078414916992 6.505546569824219 23.5739631652832 4.999996185302734 19.64889335632324 4.999996185302734 M 19.64889335632324 -3.814697265625e-06 C 30.50067329406738 -3.814697265625e-06 39.29778289794922 8.683897018432617 39.29778289794922 19.39602661132812 C 39.29778289794922 30.10815620422363 30.50067329406738 38.79205703735352 19.64889335632324 38.79205703735352 C 8.797113418579102 38.79205703735352 3.814697265625e-06 30.10815620422363 3.814697265625e-06 19.39602661132812 C 3.814697265625e-06 8.683897018432617 8.797113418579102 -3.814697265625e-06 19.64889335632324 -3.814697265625e-06 Z"/>
            </g>
          </g>
        </g>
      </g>
    </g>
  </g>
</svg>
