<svg xmlns="http://www.w3.org/2000/svg" xmlns:xlink="http://www.w3.org/1999/xlink" viewBox="0 0 209.94 58.97"><defs><style>.cls-1,.cls-3{fill:none;}.cls-2{fill:#fff;}.cls-3{stroke:#dad3c8;stroke-width:2px;}.cls-4{isolation:isolate;}.cls-5{fill:#544f4f;}.cls-6{clip-path:url(#clip-path);}.cls-7{fill:url(#linear-gradient);}.cls-8{fill:url(#linear-gradient-2);}.cls-9{fill:url(#linear-gradient-3);}.cls-10{fill:url(#linear-gradient-4);}</style><clipPath id="clip-path" transform="translate(-0.76 -0.62)"><path class="cls-1" d="M61.67,25.34l-9.89-4.81L32.69,11.26c-1.06-.52-2.12-.21-2.12.87V49.92c0,.81.76,1.16,1.68.71l19.53-9.49,9.89-4.81,9.51-4.62c1.12-.54,1-1.29.07-1.71S61.67,25.34,61.67,25.34Z"/></clipPath><linearGradient id="linear-gradient" x1="-132.34" y1="170.29" x2="-132.34" y2="166.88" gradientTransform="matrix(12, 0, 0, -12, 1630.1, 2053.2)" gradientUnits="userSpaceOnUse"><stop offset="0" stop-color="#257cb0"/><stop offset="0.29" stop-color="#4a93b5"/><stop offset="0.77" stop-color="#78bcbb"/><stop offset="1" stop-color="#89cfbd"/></linearGradient><linearGradient id="linear-gradient-2" x1="-133.36" y1="169.44" x2="-130.77" y2="169.44" gradientTransform="matrix(12, 0, 0, -12, 1630.1, 2053.2)" gradientUnits="userSpaceOnUse"><stop offset="0" stop-color="#52c1ad"/><stop offset="1" stop-color="#dee89a"/></linearGradient><linearGradient id="linear-gradient-3" x1="-132.06" y1="168.58" x2="-132.06" y2="166.86" gradientTransform="matrix(12, 0, 0, -12, 1630.1, 2053.2)" gradientUnits="userSpaceOnUse"><stop offset="0" stop-color="#ec413d"/><stop offset="0.17" stop-color="#da4452"/><stop offset="0.57" stop-color="#b0487a"/><stop offset="0.86" stop-color="#954a92"/><stop offset="1" stop-color="#8a4a9d"/></linearGradient><linearGradient id="linear-gradient-4" x1="-130.57" y1="169.04" x2="-130.57" y2="168.12" gradientTransform="matrix(12, 0, 0, -12, 1630.1, 2053.2)" gradientUnits="userSpaceOnUse"><stop offset="0" stop-color="#f58879"/><stop offset="0.12" stop-color="#f69079"/><stop offset="0.71" stop-color="#fcb877"/><stop offset="1" stop-color="#fec874"/></linearGradient></defs><title>GooglePlay</title><g id="Layer_1" data-name="Layer 1"><g id="Rectangle_709" data-name="Rectangle 709"><rect class="cls-2" x="0.02" y="0.02" width="209.9" height="58.93" rx="9.82" ry="9.82"/><rect class="cls-3" x="1" y="1" width="207.94" height="56.97" rx="8.84" ry="8.84"/></g></g><g id="Layer_3" data-name="Layer 3"><g id="Group_663" data-name="Group 663"><g id="Get_it_on" data-name="Get it on" class="cls-4"><g class="cls-4"><path class="cls-5" d="M88.72,22.79a4.3,4.3,0,0,0,.94-.1,4.89,4.89,0,0,0,.76-.27V20.87H89.35a.36.36,0,0,1-.24-.08.29.29,0,0,1-.09-.21v-.9h2.83v3.45a4.62,4.62,0,0,1-.67.41,4.46,4.46,0,0,1-.75.28,5.56,5.56,0,0,1-.85.17,7.47,7.47,0,0,1-1,.06,4.34,4.34,0,0,1-1.71-.33,3.85,3.85,0,0,1-1.36-.9,4,4,0,0,1-.89-1.38,4.54,4.54,0,0,1-.32-1.75,4.75,4.75,0,0,1,.31-1.76,4.12,4.12,0,0,1,.88-1.38,4.22,4.22,0,0,1,1.4-.9,5.07,5.07,0,0,1,1.84-.31,4.71,4.71,0,0,1,1.8.31,4.13,4.13,0,0,1,1.3.8l-.46.72a.4.4,0,0,1-.36.22.48.48,0,0,1-.29-.1l-.39-.22a2.44,2.44,0,0,0-.43-.2,5.38,5.38,0,0,0-.54-.13,3.6,3.6,0,0,0-.69,0,3,3,0,0,0-1.14.21,2.22,2.22,0,0,0-.86.61,2.77,2.77,0,0,0-.56.94,3.75,3.75,0,0,0-.19,1.24,3.8,3.8,0,0,0,.2,1.31,2.67,2.67,0,0,0,.58,1,2.45,2.45,0,0,0,.88.61A3,3,0,0,0,88.72,22.79Z" transform="translate(-0.76 -0.62)"/><path class="cls-5" d="M95.75,17.81a3,3,0,0,1,1,.18,2.34,2.34,0,0,1,.83.54,2.43,2.43,0,0,1,.54.86,3.25,3.25,0,0,1,.19,1.16,2.35,2.35,0,0,1,0,.28.58.58,0,0,1,0,.17.24.24,0,0,1-.11.09l-.16,0H94.29a2.13,2.13,0,0,0,.5,1.37,1.58,1.58,0,0,0,1.16.44,1.87,1.87,0,0,0,.61-.09,2.34,2.34,0,0,0,.45-.18l.33-.18a.52.52,0,0,1,.28-.08.41.41,0,0,1,.16,0,.35.35,0,0,1,.11.1l.42.53a2.45,2.45,0,0,1-.54.48,3,3,0,0,1-.63.3,3.17,3.17,0,0,1-.66.16,3.81,3.81,0,0,1-.66.05,3.2,3.2,0,0,1-1.17-.21,2.53,2.53,0,0,1-1-.62,3.1,3.1,0,0,1-.63-1,4,4,0,0,1-.23-1.4,3.41,3.41,0,0,1,.2-1.16,2.86,2.86,0,0,1,.58-.95,2.72,2.72,0,0,1,.91-.64A3,3,0,0,1,95.75,17.81Zm0,1a1.35,1.35,0,0,0-1,.36,1.79,1.79,0,0,0-.46,1h2.74A1.89,1.89,0,0,0,97,19.7a1.18,1.18,0,0,0-.24-.44,1.24,1.24,0,0,0-.4-.3A1.4,1.4,0,0,0,95.78,18.85Z" transform="translate(-0.76 -0.62)"/><path class="cls-5" d="M101.54,24.05a1.57,1.57,0,0,1-1.21-.45,1.66,1.66,0,0,1-.43-1.23V19h-.61a.28.28,0,0,1-.2-.08.29.29,0,0,1-.09-.23v-.58l1-.16.31-1.65a.28.28,0,0,1,.11-.18.37.37,0,0,1,.21-.06h.76V18H103v1h-1.59v3.27a.69.69,0,0,0,.14.45.49.49,0,0,0,.38.15.69.69,0,0,0,.22,0,.48.48,0,0,0,.16-.07l.12-.06a.17.17,0,0,1,.11,0,.15.15,0,0,1,.11,0l.08.09.44.71a2.16,2.16,0,0,1-.73.4A2.75,2.75,0,0,1,101.54,24.05Z" transform="translate(-0.76 -0.62)"/><path class="cls-5" d="M108.15,16.14a.86.86,0,0,1-.07.36,1,1,0,0,1-.21.29.81.81,0,0,1-.29.19,1,1,0,0,1-.37.08.9.9,0,0,1-.36-.08.81.81,0,0,1-.29-.19,1.15,1.15,0,0,1-.2-.29,1,1,0,0,1,0-.72,1.21,1.21,0,0,1,.2-.3,1,1,0,0,1,.29-.19.9.9,0,0,1,.36-.08,1,1,0,0,1,.37.08,1,1,0,0,1,.29.19,1,1,0,0,1,.21.3A.86.86,0,0,1,108.15,16.14Zm-.21,1.77v6h-1.46v-6Z" transform="translate(-0.76 -0.62)"/><path class="cls-5" d="M111.57,24.05a1.57,1.57,0,0,1-1.21-.45,1.66,1.66,0,0,1-.43-1.23V19h-.61a.28.28,0,0,1-.2-.08.29.29,0,0,1-.09-.23v-.58l1-.16.31-1.65a.28.28,0,0,1,.11-.18.38.38,0,0,1,.22-.06h.75V18H113v1h-1.59v3.27a.69.69,0,0,0,.14.45.49.49,0,0,0,.38.15.69.69,0,0,0,.22,0,.48.48,0,0,0,.16-.07l.12-.06a.19.19,0,0,1,.11,0,.15.15,0,0,1,.11,0l.08.09.44.71a2.07,2.07,0,0,1-.73.4A2.75,2.75,0,0,1,111.57,24.05Z" transform="translate(-0.76 -0.62)"/><path class="cls-5" d="M119,17.81a3.16,3.16,0,0,1,1.22.22,2.57,2.57,0,0,1,.94.62,2.72,2.72,0,0,1,.61,1,4.07,4.07,0,0,1,0,2.58,2.76,2.76,0,0,1-.61,1,2.45,2.45,0,0,1-.94.62A3.16,3.16,0,0,1,119,24a3.26,3.26,0,0,1-1.24-.22,2.61,2.61,0,0,1-.94-.62,2.91,2.91,0,0,1-.61-1,4.07,4.07,0,0,1,0-2.58,2.86,2.86,0,0,1,.61-1,2.75,2.75,0,0,1,.94-.62A3.26,3.26,0,0,1,119,17.81Zm0,5.11a1.27,1.27,0,0,0,1.11-.51,2.45,2.45,0,0,0,.37-1.48,2.5,2.5,0,0,0-.37-1.49,1.27,1.27,0,0,0-1.11-.51,1.29,1.29,0,0,0-1.13.51,2.52,2.52,0,0,0-.37,1.49,2.47,2.47,0,0,0,.37,1.48A1.29,1.29,0,0,0,119,22.92Z" transform="translate(-0.76 -0.62)"/><path class="cls-5" d="M123.12,24v-6H124a.36.36,0,0,1,.37.26l.1.48a3,3,0,0,1,.38-.34,3.87,3.87,0,0,1,.43-.27,2.58,2.58,0,0,1,.49-.17,2.49,2.49,0,0,1,.57-.06,2.14,2.14,0,0,1,.87.17,1.69,1.69,0,0,1,.64.47,2,2,0,0,1,.39.73,3,3,0,0,1,.13.92V24h-1.45V20.1a1.29,1.29,0,0,0-.26-.85.92.92,0,0,0-.77-.31,1.54,1.54,0,0,0-.7.17,2.72,2.72,0,0,0-.63.47V24Z" transform="translate(-0.76 -0.62)"/></g></g></g><g id="Group_662" data-name="Group 662"><g id="Google_Play" data-name="Google Play" class="cls-4"><g class="cls-4"><path class="cls-5" d="M91.91,44.6a7,7,0,0,0,1.55-.16A6.83,6.83,0,0,0,94.73,44V41.41H93a.56.56,0,0,1-.41-.15.48.48,0,0,1-.14-.35V39.42h4.72v5.75a7.6,7.6,0,0,1-1.12.68,8.1,8.1,0,0,1-1.25.48,11.51,11.51,0,0,1-1.42.28,13.81,13.81,0,0,1-1.63.09,7.43,7.43,0,0,1-2.86-.54,6.87,6.87,0,0,1-2.26-1.5,7,7,0,0,1-1.49-2.3,8.41,8.41,0,0,1,0-5.85,6.55,6.55,0,0,1,1.48-2.3,6.73,6.73,0,0,1,2.32-1.5A8.48,8.48,0,0,1,92,32.18a7.9,7.9,0,0,1,3,.52A6.94,6.94,0,0,1,97.11,34l-.76,1.2a.68.68,0,0,1-.6.36.84.84,0,0,1-.48-.16l-.65-.37a4.75,4.75,0,0,0-.72-.32,6.55,6.55,0,0,0-.9-.23,6.43,6.43,0,0,0-1.14-.09,4.8,4.8,0,0,0-1.9.36,3.91,3.91,0,0,0-1.45,1,4.59,4.59,0,0,0-.93,1.58,6.32,6.32,0,0,0-.32,2.06,6.46,6.46,0,0,0,.34,2.19,4.47,4.47,0,0,0,1,1.61,4.07,4.07,0,0,0,1.47,1A4.94,4.94,0,0,0,91.91,44.6Z" transform="translate(-0.76 -0.62)"/><path class="cls-5" d="M103.75,36.31a5.58,5.58,0,0,1,2,.36,4.56,4.56,0,0,1,1.57,1,4.71,4.71,0,0,1,1,1.63,6.38,6.38,0,0,1,.35,2.15,6.46,6.46,0,0,1-.35,2.17,4.85,4.85,0,0,1-1,1.64,4.58,4.58,0,0,1-1.57,1,6,6,0,0,1-4.1,0,4.53,4.53,0,0,1-1.58-1,4.87,4.87,0,0,1-1-1.64,6.21,6.21,0,0,1-.36-2.17,6.14,6.14,0,0,1,.36-2.15,4.73,4.73,0,0,1,1-1.63,4.51,4.51,0,0,1,1.58-1A5.58,5.58,0,0,1,103.75,36.31Zm0,8.51a2.13,2.13,0,0,0,1.86-.84,4.18,4.18,0,0,0,.61-2.48,4.22,4.22,0,0,0-.61-2.48,2.12,2.12,0,0,0-1.86-.86,2.14,2.14,0,0,0-1.88.86,4.25,4.25,0,0,0-.61,2.48,4.17,4.17,0,0,0,.61,2.47A2.14,2.14,0,0,0,103.75,44.82Z" transform="translate(-0.76 -0.62)"/><path class="cls-5" d="M114.92,36.31a5.62,5.62,0,0,1,2,.36,4.43,4.43,0,0,1,1.56,1,4.59,4.59,0,0,1,1,1.63,6.38,6.38,0,0,1,.35,2.15,6.46,6.46,0,0,1-.35,2.17,4.72,4.72,0,0,1-1,1.64,4.45,4.45,0,0,1-1.56,1,6,6,0,0,1-4.1,0,4.44,4.44,0,0,1-1.58-1,4.72,4.72,0,0,1-1-1.64,6.21,6.21,0,0,1-.36-2.17,6.14,6.14,0,0,1,.36-2.15,4.59,4.59,0,0,1,1-1.63,4.42,4.42,0,0,1,1.58-1A5.58,5.58,0,0,1,114.92,36.31Zm0,8.51a2.13,2.13,0,0,0,1.86-.84,4.26,4.26,0,0,0,.6-2.48,4.3,4.3,0,0,0-.6-2.48,2.12,2.12,0,0,0-1.86-.86A2.18,2.18,0,0,0,113,39a4.32,4.32,0,0,0-.61,2.48A4.24,4.24,0,0,0,113,44,2.17,2.17,0,0,0,114.92,44.82Z" transform="translate(-0.76 -0.62)"/><path class="cls-5" d="M125.27,36.29a5.31,5.31,0,0,1,1.22.13,4.15,4.15,0,0,1,1,.39h2.9v.9a.52.52,0,0,1-.12.36.71.71,0,0,1-.4.17l-.91.17a3.08,3.08,0,0,1,.16.54,3.83,3.83,0,0,1,.05.6,3,3,0,0,1-.3,1.35,3,3,0,0,1-.82,1,3.8,3.8,0,0,1-1.25.65,5.27,5.27,0,0,1-1.57.23,5.8,5.8,0,0,1-1.11-.11.81.81,0,0,0-.47.65.48.48,0,0,0,.28.45,2.45,2.45,0,0,0,.74.2,7.94,7.94,0,0,0,1,.06c.39,0,.78,0,1.19,0a9.21,9.21,0,0,1,1.19.17,3.4,3.4,0,0,1,1,.39,2.1,2.1,0,0,1,.73.72,2.22,2.22,0,0,1,.28,1.18,2.76,2.76,0,0,1-.33,1.3,3.35,3.35,0,0,1-1,1.12,4.92,4.92,0,0,1-1.53.8,6.52,6.52,0,0,1-2.06.3,7.75,7.75,0,0,1-2-.22,4.79,4.79,0,0,1-1.4-.59,2.57,2.57,0,0,1-.83-.85,1.94,1.94,0,0,1-.28-1,1.76,1.76,0,0,1,.43-1.19,3,3,0,0,1,1.2-.77,1.67,1.67,0,0,1-.6-.55,1.59,1.59,0,0,1-.22-.89,1.33,1.33,0,0,1,.08-.47,1.61,1.61,0,0,1,.24-.47,2.09,2.09,0,0,1,.4-.45,3.06,3.06,0,0,1,.58-.38,3.11,3.11,0,0,1-1.2-1.1,2.94,2.94,0,0,1-.44-1.61,2.94,2.94,0,0,1,1.14-2.38,3.87,3.87,0,0,1,1.26-.66A5.43,5.43,0,0,1,125.27,36.29ZM127.93,47a.76.76,0,0,0-.17-.5,1.23,1.23,0,0,0-.49-.29,4,4,0,0,0-.71-.16,7.81,7.81,0,0,0-.86-.05h-.94a3.61,3.61,0,0,1-.94-.11,2.3,2.3,0,0,0-.67.54,1.14,1.14,0,0,0-.25.71,1,1,0,0,0,.14.5,1.16,1.16,0,0,0,.42.4,2.71,2.71,0,0,0,.75.26,6,6,0,0,0,1.13.09,5.73,5.73,0,0,0,1.17-.1,2.81,2.81,0,0,0,.81-.3,1.25,1.25,0,0,0,.47-.44A1.15,1.15,0,0,0,127.93,47Zm-2.66-5.71a2.39,2.39,0,0,0,.79-.12,1.77,1.77,0,0,0,.55-.34,1.51,1.51,0,0,0,.34-.52,2.09,2.09,0,0,0,.11-.67,1.56,1.56,0,0,0-.45-1.18,2.26,2.26,0,0,0-2.68,0,1.56,1.56,0,0,0-.45,1.18,1.84,1.84,0,0,0,.12.66,1.29,1.29,0,0,0,.33.52,1.57,1.57,0,0,0,.56.35A2.37,2.37,0,0,0,125.27,41.26Z" transform="translate(-0.76 -0.62)"/><path class="cls-5" d="M134.53,32V46.54h-2.42V32Z" transform="translate(-0.76 -0.62)"/><path class="cls-5" d="M141.44,36.31a5,5,0,0,1,1.75.3,4,4,0,0,1,1.38.89,3.92,3.92,0,0,1,.9,1.44,5.29,5.29,0,0,1,.33,1.94,2.81,2.81,0,0,1,0,.45.72.72,0,0,1-.08.29.31.31,0,0,1-.18.14.68.68,0,0,1-.27.05H139a3.46,3.46,0,0,0,.84,2.28,2.59,2.59,0,0,0,1.92.72,3.46,3.46,0,0,0,1-.13,4.71,4.71,0,0,0,.74-.31l.56-.3a1,1,0,0,1,.47-.14.55.55,0,0,1,.26.06.48.48,0,0,1,.18.17l.71.88a4.19,4.19,0,0,1-.9.79,5.64,5.64,0,0,1-1.05.51,5.29,5.29,0,0,1-1.11.27,8.36,8.36,0,0,1-1.09.08,5.42,5.42,0,0,1-2-.35,4.25,4.25,0,0,1-1.57-1A4.75,4.75,0,0,1,137,43.62a6.43,6.43,0,0,1-.39-2.33,5.61,5.61,0,0,1,.34-1.94,4.53,4.53,0,0,1,1-1.58,4.4,4.4,0,0,1,1.52-1.07A5,5,0,0,1,141.44,36.31Zm.05,1.74a2.24,2.24,0,0,0-1.66.6,2.93,2.93,0,0,0-.77,1.7h4.56a3.13,3.13,0,0,0-.13-.89,2.1,2.1,0,0,0-.39-.74,2,2,0,0,0-.67-.49A2.28,2.28,0,0,0,141.49,38.05Z" transform="translate(-0.76 -0.62)"/><path class="cls-5" d="M154.43,41.54v5h-2.64V32.34h4.63a8.18,8.18,0,0,1,2.46.33,4.88,4.88,0,0,1,1.72.94,3.64,3.64,0,0,1,1,1.43,5.26,5.26,0,0,1,0,3.72,4,4,0,0,1-1,1.48,4.84,4.84,0,0,1-1.72,1,7.62,7.62,0,0,1-2.41.34Zm0-2.06h2a4,4,0,0,0,1.26-.18,2.48,2.48,0,0,0,.9-.52,2.23,2.23,0,0,0,.53-.83,3.31,3.31,0,0,0,.17-1.08,3,3,0,0,0-.17-1,2.16,2.16,0,0,0-.53-.79,2.43,2.43,0,0,0-.9-.49,4,4,0,0,0-1.26-.18h-2Z" transform="translate(-0.76 -0.62)"/><path class="cls-5" d="M166.42,32V46.54H164V32Z" transform="translate(-0.76 -0.62)"/><path class="cls-5" d="M177.06,46.54H176a1.16,1.16,0,0,1-.54-.1.65.65,0,0,1-.29-.42l-.22-.71c-.26.22-.51.43-.75.6a5.33,5.33,0,0,1-.76.44,4.33,4.33,0,0,1-.84.26,4.88,4.88,0,0,1-1,.09,4,4,0,0,1-1.18-.17,2.64,2.64,0,0,1-.93-.52,2.3,2.3,0,0,1-.6-.86,3.12,3.12,0,0,1-.22-1.19,2.36,2.36,0,0,1,.3-1.13,2.89,2.89,0,0,1,1-1,6.29,6.29,0,0,1,1.86-.75,12.2,12.2,0,0,1,2.87-.29v-.6a2.29,2.29,0,0,0-.42-1.51,1.6,1.6,0,0,0-1.25-.49,3,3,0,0,0-1,.14,3.94,3.94,0,0,0-.68.31c-.19.12-.37.22-.54.31a1.09,1.09,0,0,1-.54.14.68.68,0,0,1-.42-.13.92.92,0,0,1-.28-.31l-.45-.78a6,6,0,0,1,4.2-1.59,4.16,4.16,0,0,1,1.58.29,3.34,3.34,0,0,1,1.17.8,3.57,3.57,0,0,1,.73,1.24,4.62,4.62,0,0,1,.25,1.57ZM172.35,45A2.9,2.9,0,0,0,173,45a2.49,2.49,0,0,0,.6-.2,3.4,3.4,0,0,0,.54-.33,5.52,5.52,0,0,0,.52-.47V42.27a9.86,9.86,0,0,0-1.77.13,4.68,4.68,0,0,0-1.14.35,1.44,1.44,0,0,0-.62.48,1.11,1.11,0,0,0-.18.6,1.06,1.06,0,0,0,.38.92A1.59,1.59,0,0,0,172.35,45Z" transform="translate(-0.76 -0.62)"/><path class="cls-5" d="M182.67,49.31a1,1,0,0,1-.28.39.86.86,0,0,1-.53.13h-1.8l1.88-4-4.07-9.33H180a.67.67,0,0,1,.45.13,1.22,1.22,0,0,1,.24.32l2.15,5.22a4.72,4.72,0,0,1,.18.53c.06.19.1.37.14.55,0-.19.11-.37.17-.55s.13-.35.2-.54l2-5.21a.75.75,0,0,1,.26-.33.7.7,0,0,1,.4-.12h1.95Z" transform="translate(-0.76 -0.62)"/></g></g></g><g id="PLAY"><g class="cls-6"><polygon class="cls-7" points="29.81 9.76 29.81 30.22 29.81 50.68 54.33 30.22 29.81 9.76"/></g><g class="cls-6"><polygon class="cls-8" points="60.91 24.72 51.02 19.92 29.81 9.61 29.81 9.76 54.33 30.22 60.91 24.72"/></g><g class="cls-6"><polygon class="cls-9" points="29.81 50.68 29.81 50.83 51.02 40.52 60.91 35.71 54.33 30.22 29.81 50.68"/></g><g class="cls-6"><polygon class="cls-10" points="60.91 24.72 54.33 30.22 60.91 35.71 72.22 30.22 60.91 24.72"/></g></g></g></svg>