<svg id="Group_1909" data-name="Group 1909" xmlns="http://www.w3.org/2000/svg" viewBox="0 0 22.353 22.352">
  <defs>
    <style>
      .cls-1 {
        fill: #f3cc00;
      }

      .cls-2, .cls-3 {
        stroke: none;
      }

      .cls-3 {
        fill: #757474;
      }
    </style>
  </defs>
  <g id="Group_522" data-name="Group 522" transform="translate(0 0)">
    <g id="Path_136" data-name="Path 136" class="cls-1">
      <path class="cls-2" d="M 11.17609310150146 21.35218238830566 C 5.564972877502441 21.35218238830566 1.000003099441528 16.78721237182617 1.000003099441528 11.17609310150146 C 1.000003099441528 5.564972877502441 5.564972877502441 1.000003099441528 11.17609310150146 1.000003099441528 C 16.78721237182617 1.000003099441528 21.35218238830566 5.564972877502441 21.35218238830566 11.17609310150146 C 21.35218238830566 16.78721237182617 16.78721237182617 21.35218238830566 11.17609310150146 21.35218238830566 Z"/>
      <path class="cls-3" d="M 11.17609310150146 2.000003814697266 C 6.116382598876953 2.000003814697266 2.000003814697266 6.116382598876953 2.000003814697266 11.17609310150146 C 2.000003814697266 16.23580360412598 6.116382598876953 20.35218238830566 11.17609310150146 20.35218238830566 C 16.23580360412598 20.35218238830566 20.35218238830566 16.23580360412598 20.35218238830566 11.17609310150146 C 20.35218238830566 6.116382598876953 16.23580360412598 2.000003814697266 11.17609310150146 2.000003814697266 M 11.17609310150146 3.814697265625e-06 C 17.34847259521484 3.814697265625e-06 22.35218238830566 5.003702163696289 22.35218238830566 11.17609310150146 C 22.35218238830566 17.34847259521484 17.34847259521484 22.35218238830566 11.17609310150146 22.35218238830566 C 5.003702163696289 22.35218238830566 3.814697265625e-06 17.34847259521484 3.814697265625e-06 11.17609310150146 C 3.814697265625e-06 5.003702163696289 5.003702163696289 3.814697265625e-06 11.17609310150146 3.814697265625e-06 Z"/>
    </g>
  </g>
</svg>
