<svg xmlns="http://www.w3.org/2000/svg" xmlns:xlink="http://www.w3.org/1999/xlink" viewBox="0 0 48.389 112.5">
  <defs>
    <style>
      .cls-1 {
        fill: none;
      }

      .cls-2, .cls-5 {
        fill: #f3cd00;
      }

      .cls-3 {
        fill: #fff;
      }

      .cls-4, .cls-5 {
        stroke: none;
      }

      .cls-6 {
        filter: url(#Union_102);
      }
    </style>
    <filter id="Union_102" x="0" y="0" width="48.389" height="64.452" filterUnits="userSpaceOnUse">
      <feOffset dx="2" dy="2" input="SourceAlpha"/>
      <feGaussianBlur stdDeviation="1.5" result="blur"/>
      <feFlood flood-opacity="0.114"/>
      <feComposite operator="in" in2="blur"/>
      <feComposite in="SourceGraphic"/>
    </filter>
  </defs>
  <g id="PropertyPin" transform="translate(-203.498 -172.5)">
    <rect id="Rectangle_1557" data-name="Rectangle 1557" class="cls-1" width="39" height="110" transform="translate(205.999 175)"/>
    <g id="Group_2763" data-name="Group 2763">
      <g class="cls-6" transform="matrix(1, 0, 0, 1, 203.5, 172.5)">
        <path id="Union_102-2" data-name="Union 102" class="cls-2" d="M17768.338-5731.988a59.638,59.638,0,0,1-6.4-10.2,99.176,99.176,0,0,1-4.947-11.271,28.613,28.613,0,0,1-1.988-7.686,1.309,1.309,0,0,1,.176-.648q-.085-.9-.086-1.817a19.525,19.525,0,0,1,19.648-19.4,19.525,19.525,0,0,1,19.65,19.4,19.357,19.357,0,0,1-.1,2,1.148,1.148,0,0,1,.1.464c0,2.872-3.176,11.5-6.932,18.833a61.171,61.171,0,0,1-6.408,10.276c-2.416,2.974-4.551,4.483-6.355,4.483S17770.75-5729.045,17768.338-5731.988Z" transform="translate(-17752.5 5785.5)"/>
      </g>
      <g id="Group_2737" data-name="Group 2737" transform="translate(-321.91 -892)">
        <path id="Subtraction_143" data-name="Subtraction 143" class="cls-2" d="M15478.688-5805.551c-1.8,0-3.941-1.493-6.352-4.437a59.713,59.713,0,0,1-6.4-10.194,99.662,99.662,0,0,1-4.949-11.276,28.659,28.659,0,0,1-1.984-7.684c0-.86.872-1.622,2.592-2.265a16.684,16.684,0,0,0,5.009,11.74,17.168,17.168,0,0,0,12.139,4.959,17.164,17.164,0,0,0,12.136-4.959,16.7,16.7,0,0,0,5.011-11.615c1.657.624,2.5,1.344,2.5,2.14,0,2.871-3.175,11.5-6.934,18.834a60.883,60.883,0,0,1-6.4,10.272C15482.629-5807.059,15480.491-5805.551,15478.688-5805.551Z" transform="translate(-14931.089 6928)"/>
        <g id="Path_1035" data-name="Path 1035" class="cls-3" transform="translate(528 1067)">
          <path class="cls-4" d="M 19.64889335632324 36.29205703735352 C 15.06215381622314 36.29205703735352 10.75161361694336 34.5305061340332 7.511313438415527 31.33191680908203 C 4.279723167419434 28.14190673828125 2.500003337860107 23.90299606323242 2.500003337860107 19.39602661132812 C 2.500003337860107 14.88905620574951 4.279723167419434 10.650146484375 7.511313438415527 7.460136413574219 C 10.75161361694336 4.261546611785889 15.06215381622314 2.499996662139893 19.64889335632324 2.499996662139893 C 24.23563385009766 2.499996662139893 28.54617309570312 4.261546611785889 31.78647422790527 7.460136413574219 C 35.01806259155273 10.650146484375 36.79778289794922 14.88905620574951 36.79778289794922 19.39602661132812 C 36.79778289794922 23.90299606323242 35.01806259155273 28.14190673828125 31.78647422790527 31.33191680908203 C 28.54617309570312 34.5305061340332 24.23563385009766 36.29205703735352 19.64889335632324 36.29205703735352 Z"/>
          <path class="cls-5" d="M 19.64889335632324 4.999996185302734 C 15.72382354736328 4.999996185302734 12.03700256347656 6.505546569824219 9.267593383789062 9.239316940307617 C 6.515594482421875 11.95589637756348 5.000003814697266 15.56295585632324 5.000003814697266 19.39602661132812 C 5.000003814697266 23.22909545898438 6.515594482421875 26.83615684509277 9.267593383789062 29.55273628234863 C 12.03700256347656 32.28650665283203 15.72382354736328 33.79205703735352 19.64889335632324 33.79205703735352 C 23.5739631652832 33.79205703735352 27.26078414916992 32.28650665283203 30.03019332885742 29.55273628234863 C 32.78219223022461 26.83615684509277 34.29778289794922 23.22909545898438 34.29778289794922 19.39602661132812 C 34.29778289794922 15.56295585632324 32.78219223022461 11.95589637756348 30.03019332885742 9.239316940307617 C 27.26078414916992 6.505546569824219 23.5739631652832 4.999996185302734 19.64889335632324 4.999996185302734 M 19.64889335632324 -3.814697265625e-06 C 30.50067329406738 -3.814697265625e-06 39.29778289794922 8.683897018432617 39.29778289794922 19.39602661132812 C 39.29778289794922 30.10815620422363 30.50067329406738 38.79205703735352 19.64889335632324 38.79205703735352 C 8.797113418579102 38.79205703735352 3.814697265625e-06 30.10815620422363 3.814697265625e-06 19.39602661132812 C 3.814697265625e-06 8.683897018432617 8.797113418579102 -3.814697265625e-06 19.64889335632324 -3.814697265625e-06 Z"/>
        </g>
        <g id="Group_2736" data-name="Group 2736" transform="translate(537.001 1078)">
          <path id="Union_6" data-name="Union 6" class="cls-2" d="M7.59,18H3.261a1,1,0,0,1-1-1V9.184l8.158-6.622,8.069,6.549V17a1,1,0,0,1-1,1H13.241V13.641a1,1,0,0,0-1-1H8.59a1,1,0,0,0-1,1V18h0ZM19.343,9l-8.9-7.22L1.55,9A1.061,1.061,0,0,1,.266,9a.642.642,0,0,1,0-1.041L9.7.306A.827.827,0,0,1,9.8.215a1.09,1.09,0,0,1,1.3,0,.757.757,0,0,1,.095.091l9.436,7.657a.644.644,0,0,1,0,1.041,1.061,1.061,0,0,1-1.283,0ZM2.261,5.663V2.123a1,1,0,0,1,1-1H4.6a1,1,0,0,1,1,1v.832L2.263,5.664h0Z" transform="translate(0 0)"/>
        </g>
      </g>
    </g>
  </g>
</svg>
