<svg xmlns="http://www.w3.org/2000/svg" xmlns:xlink="http://www.w3.org/1999/xlink" viewBox="0 0 48.389 112.5">
  <defs>
    <style>
      .cls-1 {
        fill: none;
      }

      .cls-2 {
        fill: #2e92dd;
      }

      .cls-3, .cls-6 {
        fill: #2f92dd;
      }

      .cls-4 {
        fill: #fff;
      }

      .cls-5, .cls-6 {
        stroke: none;
      }

      .cls-7 {
        filter: url(#Union_105);
      }
    </style>
    <filter id="Union_105" x="0" y="0" width="48.389" height="64.452" filterUnits="userSpaceOnUse">
      <feOffset dx="2" dy="2" input="SourceAlpha"/>
      <feGaussianBlur stdDeviation="1.5" result="blur"/>
      <feFlood flood-opacity="0.114"/>
      <feComposite operator="in" in2="blur"/>
      <feComposite in="SourceGraphic"/>
    </filter>
  </defs>
  <g id="UniPin" transform="translate(-475.498 -171.5)">
    <rect id="Rectangle_1559" data-name="Rectangle 1559" class="cls-1" width="39" height="110" transform="translate(477.999 174)"/>
    <g id="Group_2765" data-name="Group 2765" transform="translate(-15 -1)">
      <g class="cls-7" transform="matrix(1, 0, 0, 1, 490.5, 172.5)">
        <path id="Union_105-2" data-name="Union 105" class="cls-2" d="M17768.338-5731.988a59.638,59.638,0,0,1-6.4-10.2,99.176,99.176,0,0,1-4.947-11.271,28.613,28.613,0,0,1-1.988-7.686,1.309,1.309,0,0,1,.176-.648q-.085-.9-.086-1.817a19.525,19.525,0,0,1,19.648-19.4,19.525,19.525,0,0,1,19.65,19.4,19.357,19.357,0,0,1-.1,2,1.148,1.148,0,0,1,.1.464c0,2.872-3.176,11.5-6.932,18.833a61.171,61.171,0,0,1-6.408,10.276c-2.416,2.974-4.551,4.483-6.355,4.483S17770.75-5729.045,17768.338-5731.988Z" transform="translate(-17752.5 5785.5)"/>
      </g>
      <g id="Group_2735" data-name="Group 2735" transform="translate(-258.91 -619.448)">
        <path id="Subtraction_142" data-name="Subtraction 142" class="cls-3" d="M15478.688-5806c-1.8,0-3.941-1.493-6.352-4.437a59.694,59.694,0,0,1-6.4-10.2,99.588,99.588,0,0,1-4.949-11.277,28.661,28.661,0,0,1-1.984-7.685c0-.859.869-1.621,2.585-2.262,0,.086,0,.169,0,.251a16.671,16.671,0,0,0,5.014,11.937,17.162,17.162,0,0,0,12.135,4.959,17.164,17.164,0,0,0,12.136-4.959,16.671,16.671,0,0,0,5.014-11.937c0-.043,0-.086,0-.129,1.66.624,2.5,1.344,2.5,2.14,0,2.873-3.175,11.5-6.934,18.838a60.893,60.893,0,0,1-6.4,10.273C15482.629-5807.506,15480.49-5806,15478.688-5806Z" transform="translate(-14707.089 6655.448)"/>
        <g id="Group_2733" data-name="Group 2733" transform="translate(801.993 839.448)">
          <g id="Group_522" data-name="Group 522" transform="translate(-50 -45)">
            <g id="Path_136" data-name="Path 136" class="cls-4">
              <path class="cls-5" d="M 19.64889335632324 36.29205703735352 C 15.06215381622314 36.29205703735352 10.75161361694336 34.5305061340332 7.511313438415527 31.33191680908203 C 4.279723167419434 28.14190673828125 2.500003337860107 23.90299606323242 2.500003337860107 19.39602661132812 C 2.500003337860107 14.88905620574951 4.279723167419434 10.650146484375 7.511313438415527 7.460136413574219 C 10.75161361694336 4.261546611785889 15.06215381622314 2.499996662139893 19.64889335632324 2.499996662139893 C 24.23563385009766 2.499996662139893 28.54617309570312 4.261546611785889 31.78647422790527 7.460136413574219 C 35.01806259155273 10.650146484375 36.79778289794922 14.88905620574951 36.79778289794922 19.39602661132812 C 36.79778289794922 23.90299606323242 35.01806259155273 28.14190673828125 31.78647422790527 31.33191680908203 C 28.54617309570312 34.5305061340332 24.23563385009766 36.29205703735352 19.64889335632324 36.29205703735352 Z"/>
              <path class="cls-6" d="M 19.64889335632324 4.999996185302734 C 15.72382354736328 4.999996185302734 12.03700256347656 6.505546569824219 9.267593383789062 9.239316940307617 C 6.515594482421875 11.95589637756348 5.000003814697266 15.56295585632324 5.000003814697266 19.39602661132812 C 5.000003814697266 23.22909545898438 6.515594482421875 26.83615684509277 9.267593383789062 29.55273628234863 C 12.03700256347656 32.28650665283203 15.72382354736328 33.79205703735352 19.64889335632324 33.79205703735352 C 23.5739631652832 33.79205703735352 27.26078414916992 32.28650665283203 30.03019332885742 29.55273628234863 C 32.78219223022461 26.83615684509277 34.29778289794922 23.22909545898438 34.29778289794922 19.39602661132812 C 34.29778289794922 15.56295585632324 32.78219223022461 11.95589637756348 30.03019332885742 9.239316940307617 C 27.26078414916992 6.505546569824219 23.5739631652832 4.999996185302734 19.64889335632324 4.999996185302734 M 19.64889335632324 -3.814697265625e-06 C 30.50067329406738 -3.814697265625e-06 39.29778289794922 8.683897018432617 39.29778289794922 19.39602661132812 C 39.29778289794922 30.10815620422363 30.50067329406738 38.79205703735352 19.64889335632324 38.79205703735352 C 8.797113418579102 38.79205703735352 3.814697265625e-06 30.10815620422363 3.814697265625e-06 19.39602661132812 C 3.814697265625e-06 8.683897018432617 8.797113418579102 -3.814697265625e-06 19.64889335632324 -3.814697265625e-06 Z"/>
            </g>
          </g>
        </g>
        <path id="Union_99" data-name="Union 99" class="cls-3" d="M19.81,18h-.069c-.387,0-.374-.174-.41-.273-.025-.069.185-1.892.313-2.985a1.171,1.171,0,0,1-.405-.919,1.132,1.132,0,0,1,.5-.985V7.821c-2.957,1.424-7.237,3.482-7.6,3.631-.555.23-.563.3-1.309,0S1.324,6.946.407,6.467s0-1.3,0-1.3S10.066.493,10.834.152a1.444,1.444,0,0,1,1.309,0S21.6,4.533,22.549,5.167s0,1.3,0,1.3l-2.034.981v5.406a1.144,1.144,0,0,1,.472.967,1.2,1.2,0,0,1-.33.852c.153,1.2.373,2.958.344,3.028-.043.107-.027.291-.486.3l-.4,0ZM9.692,16.582c-1.374-.539-3.381-1.423-3.981-2.209s-.673-.957-.69-1.323,0-3.22,0-3.22l5.761,2.7a2.682,2.682,0,0,0,1.532,0c.74-.259,5.581-2.7,5.581-2.7v3.22s.117.917-1.161,1.847a11.754,11.754,0,0,1-3.978,1.848,7.507,7.507,0,0,1-1.409.186A4.421,4.421,0,0,1,9.692,16.582Z" transform="translate(760.011 804.905)"/>
      </g>
    </g>
  </g>
</svg>
